<?xml version="1.0" encoding="UTF-8"?> <svg xmlns="http://www.w3.org/2000/svg" id="Layer_1" data-name="Layer 1" viewBox="0 0 391.28 70"><defs><style>.cls-1{fill:#89b23f;}.cls-2{fill:#321a16;}</style></defs><title>kochlik-logo-original</title><path class="cls-1" d="M63.75,0H6.25A6.34,6.34,0,0,0,0,6.42v3.63H47.5A2.54,2.54,0,0,1,50,12.62v6.53a2.54,2.54,0,0,1-2.5,2.57H0v1.82H44.9L34.58,57.37a3.25,3.25,0,0,1-3.34,3H0v3.22A6.34,6.34,0,0,0,6.25,70h57.5A6.34,6.34,0,0,0,70,63.58V6.42A6.34,6.34,0,0,0,63.75,0"></path><path class="cls-2" d="M108.29,43.27l-2.56,3.46V59.54h-14V13.35h14V30.66l12.12-17.31H135L117.5,34.82l18.21,24.72h-17Z"></path><path class="cls-2" d="M158.22,12.59c14.26,0,25.27,9.7,25.27,23.89s-11,23.89-25.27,23.89-25.28-9.69-25.28-23.89S144,12.59,158.22,12.59Zm0,12.33c-6.72,0-11.08,5.12-11.08,11.56S151.5,48,158.22,48s11.08-5.12,11.08-11.56S164.93,24.92,158.22,24.92Z"></path><path class="cls-2" d="M186,36.48c0-14.26,10.94-23.89,25.07-23.89,12.46,0,18.55,7.06,21.32,13.44l-12,5.6a9.89,9.89,0,0,0-9.28-6.71c-6.37,0-10.87,5.12-10.87,11.56S204.68,48,211.05,48a9.89,9.89,0,0,0,9.28-6.71l12,5.54c-2.7,6.16-8.86,13.5-21.32,13.5C196.92,60.37,186,50.68,186,36.48Z"></path><path class="cls-2" d="M267.27,41.88H250.72V59.54h-14V13.35h14V29.7h16.55V13.35h14V59.54h-14Z"></path><path class="cls-2" d="M288.73,13.35h14v34h17.52V59.54H288.73Z"></path><path class="cls-2" d="M325.85,13.35h14V59.54h-14Z"></path><path class="cls-2" d="M363.86,43.27l-2.56,3.46V59.54h-14V13.35h14V30.66l12.12-17.31h17.1L373.07,34.82l18.21,24.72h-17Z"></path></svg> 